<mxfile host="app.diagrams.net" modified="2023-12-27T05:28:18.529Z" agent="Mozilla/5.0 (X11; Linux x86_64) AppleWebKit/537.36 (KHTML, like Gecko) Chrome/120.0.0.0 Safari/537.36" etag="Ds9pfuKZCNZCIxUMLw63" version="22.1.11" type="device">
  <diagram name="Страница — 1" id="BJudT1zYegn8cDxzeFE9">
    <mxGraphModel dx="1111" dy="576" grid="1" gridSize="10" guides="1" tooltips="1" connect="1" arrows="1" fold="1" page="1" pageScale="1" pageWidth="827" pageHeight="1169" math="0" shadow="0">
      <root>
        <mxCell id="0" />
        <mxCell id="1" parent="0" />
        <mxCell id="2IkOcQVK2yApnJijZL3A-3" value="выбрать пункт&lt;br&gt;&quot;Соц. интеграция&quot;" style="strokeWidth=2;html=1;shape=mxgraph.flowchart.terminator;whiteSpace=wrap;" parent="1" vertex="1">
          <mxGeometry x="280" y="90" width="165" height="60" as="geometry" />
        </mxCell>
        <mxCell id="2IkOcQVK2yApnJijZL3A-4" style="edgeStyle=orthogonalEdgeStyle;rounded=0;orthogonalLoop=1;jettySize=auto;html=1;exitX=0.5;exitY=1;exitDx=0;exitDy=0;entryX=0.5;entryY=0;entryDx=0;entryDy=0;entryPerimeter=0;" parent="1" source="2IkOcQVK2yApnJijZL3A-1" target="2IkOcQVK2yApnJijZL3A-3" edge="1">
          <mxGeometry relative="1" as="geometry" />
        </mxCell>
        <mxCell id="2IkOcQVK2yApnJijZL3A-15" value="" style="edgeStyle=orthogonalEdgeStyle;rounded=0;orthogonalLoop=1;jettySize=auto;html=1;" parent="1" source="2IkOcQVK2yApnJijZL3A-6" target="2IkOcQVK2yApnJijZL3A-11" edge="1">
          <mxGeometry relative="1" as="geometry" />
        </mxCell>
        <mxCell id="2IkOcQVK2yApnJijZL3A-6" value="Выбрать из списка&amp;nbsp;&lt;br&gt;соц. сеть" style="strokeWidth=2;html=1;shape=mxgraph.flowchart.terminator;whiteSpace=wrap;" parent="1" vertex="1">
          <mxGeometry x="280" y="170" width="165" height="60" as="geometry" />
        </mxCell>
        <mxCell id="2IkOcQVK2yApnJijZL3A-7" style="edgeStyle=orthogonalEdgeStyle;rounded=0;orthogonalLoop=1;jettySize=auto;html=1;exitX=0.5;exitY=1;exitDx=0;exitDy=0;exitPerimeter=0;entryX=0.5;entryY=0;entryDx=0;entryDy=0;entryPerimeter=0;" parent="1" source="2IkOcQVK2yApnJijZL3A-3" target="2IkOcQVK2yApnJijZL3A-6" edge="1">
          <mxGeometry relative="1" as="geometry" />
        </mxCell>
        <mxCell id="2IkOcQVK2yApnJijZL3A-8" value="" style="ellipse;html=1;shape=endState;fillColor=strokeColor;" parent="1" vertex="1">
          <mxGeometry x="347.5" y="1139" width="30" height="30" as="geometry" />
        </mxCell>
        <mxCell id="2IkOcQVK2yApnJijZL3A-10" value="" style="edgeStyle=orthogonalEdgeStyle;rounded=0;orthogonalLoop=1;jettySize=auto;html=1;" parent="1" source="2IkOcQVK2yApnJijZL3A-9" target="2IkOcQVK2yApnJijZL3A-8" edge="1">
          <mxGeometry relative="1" as="geometry" />
        </mxCell>
        <mxCell id="2IkOcQVK2yApnJijZL3A-9" value="Выход из функции&lt;br&gt;&quot;Соц. интеграция&quot;" style="strokeWidth=2;html=1;shape=mxgraph.flowchart.terminator;whiteSpace=wrap;" parent="1" vertex="1">
          <mxGeometry x="280" y="1050" width="165" height="60" as="geometry" />
        </mxCell>
        <mxCell id="2IkOcQVK2yApnJijZL3A-14" value="" style="edgeStyle=orthogonalEdgeStyle;rounded=0;orthogonalLoop=1;jettySize=auto;html=1;" parent="1" source="2IkOcQVK2yApnJijZL3A-11" target="2IkOcQVK2yApnJijZL3A-12" edge="1">
          <mxGeometry relative="1" as="geometry" />
        </mxCell>
        <mxCell id="2IkOcQVK2yApnJijZL3A-11" value="Авторизация в соц. сети" style="strokeWidth=2;html=1;shape=mxgraph.flowchart.terminator;whiteSpace=wrap;" parent="1" vertex="1">
          <mxGeometry x="280" y="250" width="165" height="60" as="geometry" />
        </mxCell>
        <mxCell id="2IkOcQVK2yApnJijZL3A-20" style="edgeStyle=orthogonalEdgeStyle;rounded=0;orthogonalLoop=1;jettySize=auto;html=1;" parent="1" source="2IkOcQVK2yApnJijZL3A-12" target="2IkOcQVK2yApnJijZL3A-41" edge="1">
          <mxGeometry relative="1" as="geometry">
            <Array as="points">
              <mxPoint x="150" y="390" />
              <mxPoint x="150" y="985" />
            </Array>
          </mxGeometry>
        </mxCell>
        <mxCell id="2IkOcQVK2yApnJijZL3A-23" value="" style="edgeStyle=orthogonalEdgeStyle;rounded=0;orthogonalLoop=1;jettySize=auto;html=1;" parent="1" source="2IkOcQVK2yApnJijZL3A-12" target="2IkOcQVK2yApnJijZL3A-22" edge="1">
          <mxGeometry relative="1" as="geometry" />
        </mxCell>
        <mxCell id="2IkOcQVK2yApnJijZL3A-12" value="" style="strokeWidth=2;html=1;shape=mxgraph.flowchart.decision;whiteSpace=wrap;" parent="1" vertex="1">
          <mxGeometry x="312.5" y="340" width="100" height="100" as="geometry" />
        </mxCell>
        <mxCell id="2IkOcQVK2yApnJijZL3A-16" value="[успешная авторизация]" style="text;html=1;strokeColor=none;fillColor=none;align=center;verticalAlign=middle;whiteSpace=wrap;rounded=0;" parent="1" vertex="1">
          <mxGeometry x="367.5" y="440" width="160" height="30" as="geometry" />
        </mxCell>
        <mxCell id="2IkOcQVK2yApnJijZL3A-17" value="[пользователь передумал]" style="text;html=1;strokeColor=none;fillColor=none;align=center;verticalAlign=middle;whiteSpace=wrap;rounded=0;" parent="1" vertex="1">
          <mxGeometry x="142.5" y="350" width="160" height="30" as="geometry" />
        </mxCell>
        <mxCell id="2IkOcQVK2yApnJijZL3A-27" value="" style="edgeStyle=orthogonalEdgeStyle;rounded=0;orthogonalLoop=1;jettySize=auto;html=1;" parent="1" source="2IkOcQVK2yApnJijZL3A-22" target="2IkOcQVK2yApnJijZL3A-26" edge="1">
          <mxGeometry relative="1" as="geometry" />
        </mxCell>
        <mxCell id="2IkOcQVK2yApnJijZL3A-22" value="Запрос на разрешение доступа для HokeyPoint" style="strokeWidth=2;html=1;shape=mxgraph.flowchart.terminator;whiteSpace=wrap;" parent="1" vertex="1">
          <mxGeometry x="280" y="470" width="165" height="60" as="geometry" />
        </mxCell>
        <mxCell id="2IkOcQVK2yApnJijZL3A-32" style="edgeStyle=orthogonalEdgeStyle;rounded=0;orthogonalLoop=1;jettySize=auto;html=1;" parent="1" source="2IkOcQVK2yApnJijZL3A-26" target="2IkOcQVK2yApnJijZL3A-41" edge="1">
          <mxGeometry relative="1" as="geometry">
            <Array as="points">
              <mxPoint x="150" y="610" />
              <mxPoint x="150" y="985" />
            </Array>
          </mxGeometry>
        </mxCell>
        <mxCell id="2IkOcQVK2yApnJijZL3A-34" value="" style="edgeStyle=orthogonalEdgeStyle;rounded=0;orthogonalLoop=1;jettySize=auto;html=1;" parent="1" source="2IkOcQVK2yApnJijZL3A-26" target="2IkOcQVK2yApnJijZL3A-33" edge="1">
          <mxGeometry relative="1" as="geometry" />
        </mxCell>
        <mxCell id="2IkOcQVK2yApnJijZL3A-26" value="" style="strokeWidth=2;html=1;shape=mxgraph.flowchart.decision;whiteSpace=wrap;" parent="1" vertex="1">
          <mxGeometry x="312.5" y="560" width="100" height="100" as="geometry" />
        </mxCell>
        <mxCell id="2IkOcQVK2yApnJijZL3A-29" value="[пользователь передумал]" style="text;html=1;strokeColor=none;fillColor=none;align=center;verticalAlign=middle;whiteSpace=wrap;rounded=0;" parent="1" vertex="1">
          <mxGeometry x="152.5" y="570" width="160" height="30" as="geometry" />
        </mxCell>
        <mxCell id="2IkOcQVK2yApnJijZL3A-30" value="[пользователь дал доступ]" style="text;html=1;strokeColor=none;fillColor=none;align=center;verticalAlign=middle;whiteSpace=wrap;rounded=0;" parent="1" vertex="1">
          <mxGeometry x="377.5" y="660" width="160" height="30" as="geometry" />
        </mxCell>
        <mxCell id="2IkOcQVK2yApnJijZL3A-36" value="" style="edgeStyle=orthogonalEdgeStyle;rounded=0;orthogonalLoop=1;jettySize=auto;html=1;" parent="1" source="2IkOcQVK2yApnJijZL3A-33" target="2IkOcQVK2yApnJijZL3A-35" edge="1">
          <mxGeometry relative="1" as="geometry" />
        </mxCell>
        <mxCell id="2IkOcQVK2yApnJijZL3A-33" value="доступ к API соц. сети для HokeyPoint" style="whiteSpace=wrap;html=1;strokeWidth=2;" parent="1" vertex="1">
          <mxGeometry x="302.5" y="700" width="120" height="60" as="geometry" />
        </mxCell>
        <mxCell id="2IkOcQVK2yApnJijZL3A-39" value="" style="edgeStyle=orthogonalEdgeStyle;rounded=0;orthogonalLoop=1;jettySize=auto;html=1;" parent="1" source="2IkOcQVK2yApnJijZL3A-35" target="2IkOcQVK2yApnJijZL3A-38" edge="1">
          <mxGeometry relative="1" as="geometry" />
        </mxCell>
        <mxCell id="2IkOcQVK2yApnJijZL3A-35" value="Принять доступ" style="strokeWidth=2;html=1;shape=mxgraph.flowchart.terminator;whiteSpace=wrap;" parent="1" vertex="1">
          <mxGeometry x="280" y="780" width="165" height="60" as="geometry" />
        </mxCell>
        <mxCell id="2IkOcQVK2yApnJijZL3A-42" value="" style="edgeStyle=orthogonalEdgeStyle;rounded=0;orthogonalLoop=1;jettySize=auto;html=1;" parent="1" source="2IkOcQVK2yApnJijZL3A-38" target="2IkOcQVK2yApnJijZL3A-41" edge="1">
          <mxGeometry relative="1" as="geometry" />
        </mxCell>
        <mxCell id="2IkOcQVK2yApnJijZL3A-38" value="Уведомление об&lt;br&gt;успешном связывании" style="strokeWidth=2;html=1;shape=mxgraph.flowchart.terminator;whiteSpace=wrap;" parent="1" vertex="1">
          <mxGeometry x="280" y="860" width="165" height="60" as="geometry" />
        </mxCell>
        <mxCell id="2IkOcQVK2yApnJijZL3A-49" value="" style="edgeStyle=orthogonalEdgeStyle;rounded=0;orthogonalLoop=1;jettySize=auto;html=1;" parent="1" source="2IkOcQVK2yApnJijZL3A-41" target="2IkOcQVK2yApnJijZL3A-9" edge="1">
          <mxGeometry relative="1" as="geometry" />
        </mxCell>
        <mxCell id="2IkOcQVK2yApnJijZL3A-41" value="" style="strokeWidth=2;html=1;shape=mxgraph.flowchart.decision;whiteSpace=wrap;" parent="1" vertex="1">
          <mxGeometry x="329.75" y="950" width="65.5" height="70" as="geometry" />
        </mxCell>
        <mxCell id="oUMh_dNegMQpqmLKUiw0-2" value="Пользователь" style="swimlane;horizontal=0;whiteSpace=wrap;html=1;" vertex="1" parent="1">
          <mxGeometry x="60" y="30" width="620" height="210" as="geometry" />
        </mxCell>
        <mxCell id="2IkOcQVK2yApnJijZL3A-1" value="" style="ellipse;fillColor=strokeColor;html=1;" parent="oUMh_dNegMQpqmLKUiw0-2" vertex="1">
          <mxGeometry x="287.5" y="10" width="30" height="30" as="geometry" />
        </mxCell>
        <mxCell id="oUMh_dNegMQpqmLKUiw0-3" value="Выбранная соц. сеть" style="swimlane;horizontal=0;whiteSpace=wrap;html=1;startSize=23;" vertex="1" parent="1">
          <mxGeometry x="60" y="240" width="620" height="690" as="geometry" />
        </mxCell>
        <mxCell id="oUMh_dNegMQpqmLKUiw0-4" value="HockeyPoint" style="swimlane;horizontal=0;whiteSpace=wrap;html=1;startSize=23;" vertex="1" parent="1">
          <mxGeometry x="60" y="930" width="620" height="250" as="geometry" />
        </mxCell>
      </root>
    </mxGraphModel>
  </diagram>
</mxfile>
